<mxfile host="Electron" agent="Mozilla/5.0 (Windows NT 10.0; Win64; x64) AppleWebKit/537.36 (KHTML, like Gecko) draw.io/21.2.1 Chrome/112.0.5615.87 Electron/24.1.2 Safari/537.36" modified="2025-08-06T22:01:54.462Z" version="21.2.1" etag="_37CbibzLtxH3c2FxDCJ" type="device">
  <diagram name="Página-1" id="fdSIGJ0MVZ1p6CJW_DRF">
    <mxGraphModel dx="101059" dy="703" grid="1" gridSize="10" guides="1" tooltips="1" connect="1" arrows="1" fold="1" page="1" pageScale="1" pageWidth="100000" pageHeight="100000" math="0" shadow="0">
      <root>
        <mxCell id="0" />
        <mxCell id="1" parent="0" />
        <mxCell id="Z5hBH6X2v1q_YAVPa5sn-1" value="Número; predescesores; duración(hs) | Tarea" style="shape=table;startSize=30;container=1;collapsible=0;childLayout=tableLayout;fixedRows=1;rowLines=0;fontStyle=0;strokeColor=default;fontSize=16;" parent="1" vertex="1">
          <mxGeometry x="-3370" y="320" width="480" height="360" as="geometry" />
        </mxCell>
        <mxCell id="Z5hBH6X2v1q_YAVPa5sn-2" value="" style="shape=tableRow;horizontal=0;startSize=0;swimlaneHead=0;swimlaneBody=0;top=0;left=0;bottom=0;right=0;collapsible=0;dropTarget=0;fillColor=none;points=[[0,0.5],[1,0.5]];portConstraint=eastwest;strokeColor=inherit;fontSize=16;" parent="Z5hBH6X2v1q_YAVPa5sn-1" vertex="1">
          <mxGeometry y="30" width="480" height="30" as="geometry" />
        </mxCell>
        <mxCell id="Z5hBH6X2v1q_YAVPa5sn-3" value="1;&amp;nbsp; ;4" style="shape=partialRectangle;html=1;whiteSpace=wrap;connectable=0;fillColor=none;top=0;left=0;bottom=0;right=0;overflow=hidden;pointerEvents=1;strokeColor=inherit;fontSize=16;" parent="Z5hBH6X2v1q_YAVPa5sn-2" vertex="1">
          <mxGeometry width="97" height="30" as="geometry">
            <mxRectangle width="97" height="30" as="alternateBounds" />
          </mxGeometry>
        </mxCell>
        <mxCell id="Z5hBH6X2v1q_YAVPa5sn-4" value="crear db" style="shape=partialRectangle;html=1;whiteSpace=wrap;connectable=0;fillColor=none;top=0;left=0;bottom=0;right=0;align=left;spacingLeft=6;overflow=hidden;strokeColor=inherit;fontSize=16;" parent="Z5hBH6X2v1q_YAVPa5sn-2" vertex="1">
          <mxGeometry x="97" width="383" height="30" as="geometry">
            <mxRectangle width="383" height="30" as="alternateBounds" />
          </mxGeometry>
        </mxCell>
        <mxCell id="Z5hBH6X2v1q_YAVPa5sn-5" value="" style="shape=tableRow;horizontal=0;startSize=0;swimlaneHead=0;swimlaneBody=0;top=0;left=0;bottom=0;right=0;collapsible=0;dropTarget=0;fillColor=none;points=[[0,0.5],[1,0.5]];portConstraint=eastwest;strokeColor=inherit;fontSize=16;" parent="Z5hBH6X2v1q_YAVPa5sn-1" vertex="1">
          <mxGeometry y="60" width="480" height="30" as="geometry" />
        </mxCell>
        <mxCell id="Z5hBH6X2v1q_YAVPa5sn-6" value="&lt;div&gt;2; 1 ;1&lt;/div&gt;" style="shape=partialRectangle;html=1;whiteSpace=wrap;connectable=0;fillColor=none;top=0;left=0;bottom=0;right=0;overflow=hidden;strokeColor=inherit;fontSize=16;" parent="Z5hBH6X2v1q_YAVPa5sn-5" vertex="1">
          <mxGeometry width="97" height="30" as="geometry">
            <mxRectangle width="97" height="30" as="alternateBounds" />
          </mxGeometry>
        </mxCell>
        <mxCell id="Z5hBH6X2v1q_YAVPa5sn-7" value="Conectar db" style="shape=partialRectangle;html=1;whiteSpace=wrap;connectable=0;fillColor=none;top=0;left=0;bottom=0;right=0;align=left;spacingLeft=6;overflow=hidden;strokeColor=inherit;fontSize=16;" parent="Z5hBH6X2v1q_YAVPa5sn-5" vertex="1">
          <mxGeometry x="97" width="383" height="30" as="geometry">
            <mxRectangle width="383" height="30" as="alternateBounds" />
          </mxGeometry>
        </mxCell>
        <mxCell id="Z5hBH6X2v1q_YAVPa5sn-11" value="" style="shape=tableRow;horizontal=0;startSize=0;swimlaneHead=0;swimlaneBody=0;top=0;left=0;bottom=0;right=0;collapsible=0;dropTarget=0;fillColor=none;points=[[0,0.5],[1,0.5]];portConstraint=eastwest;strokeColor=inherit;fontSize=16;" parent="Z5hBH6X2v1q_YAVPa5sn-1" vertex="1">
          <mxGeometry y="90" width="480" height="30" as="geometry" />
        </mxCell>
        <mxCell id="Z5hBH6X2v1q_YAVPa5sn-12" value="&lt;div&gt;3; 2 ;4&lt;/div&gt;" style="shape=partialRectangle;html=1;whiteSpace=wrap;connectable=0;fillColor=none;top=0;left=0;bottom=0;right=0;overflow=hidden;strokeColor=inherit;fontSize=16;" parent="Z5hBH6X2v1q_YAVPa5sn-11" vertex="1">
          <mxGeometry width="97" height="30" as="geometry">
            <mxRectangle width="97" height="30" as="alternateBounds" />
          </mxGeometry>
        </mxCell>
        <mxCell id="Z5hBH6X2v1q_YAVPa5sn-13" value="crear funcion acceder" style="shape=partialRectangle;html=1;whiteSpace=wrap;connectable=0;fillColor=none;top=0;left=0;bottom=0;right=0;align=left;spacingLeft=6;overflow=hidden;strokeColor=inherit;fontSize=16;" parent="Z5hBH6X2v1q_YAVPa5sn-11" vertex="1">
          <mxGeometry x="97" width="383" height="30" as="geometry">
            <mxRectangle width="383" height="30" as="alternateBounds" />
          </mxGeometry>
        </mxCell>
        <mxCell id="Z5hBH6X2v1q_YAVPa5sn-14" value="" style="shape=tableRow;horizontal=0;startSize=0;swimlaneHead=0;swimlaneBody=0;top=0;left=0;bottom=0;right=0;collapsible=0;dropTarget=0;fillColor=none;points=[[0,0.5],[1,0.5]];portConstraint=eastwest;strokeColor=inherit;fontSize=16;" parent="Z5hBH6X2v1q_YAVPa5sn-1" vertex="1">
          <mxGeometry y="120" width="480" height="30" as="geometry" />
        </mxCell>
        <mxCell id="Z5hBH6X2v1q_YAVPa5sn-15" value="&lt;div&gt;4; 2 ;4&lt;/div&gt;" style="shape=partialRectangle;html=1;whiteSpace=wrap;connectable=0;fillColor=none;top=0;left=0;bottom=0;right=0;overflow=hidden;strokeColor=inherit;fontSize=16;" parent="Z5hBH6X2v1q_YAVPa5sn-14" vertex="1">
          <mxGeometry width="97" height="30" as="geometry">
            <mxRectangle width="97" height="30" as="alternateBounds" />
          </mxGeometry>
        </mxCell>
        <mxCell id="Z5hBH6X2v1q_YAVPa5sn-16" value="crear funcion automatizar" style="shape=partialRectangle;html=1;whiteSpace=wrap;connectable=0;fillColor=none;top=0;left=0;bottom=0;right=0;align=left;spacingLeft=6;overflow=hidden;strokeColor=inherit;fontSize=16;" parent="Z5hBH6X2v1q_YAVPa5sn-14" vertex="1">
          <mxGeometry x="97" width="383" height="30" as="geometry">
            <mxRectangle width="383" height="30" as="alternateBounds" />
          </mxGeometry>
        </mxCell>
        <mxCell id="Z5hBH6X2v1q_YAVPa5sn-17" value="" style="shape=tableRow;horizontal=0;startSize=0;swimlaneHead=0;swimlaneBody=0;top=0;left=0;bottom=0;right=0;collapsible=0;dropTarget=0;fillColor=none;points=[[0,0.5],[1,0.5]];portConstraint=eastwest;strokeColor=inherit;fontSize=16;" parent="Z5hBH6X2v1q_YAVPa5sn-1" vertex="1">
          <mxGeometry y="150" width="480" height="30" as="geometry" />
        </mxCell>
        <mxCell id="Z5hBH6X2v1q_YAVPa5sn-18" value="&lt;div&gt;5; 3,4 ;4&lt;/div&gt;" style="shape=partialRectangle;html=1;whiteSpace=wrap;connectable=0;fillColor=none;top=0;left=0;bottom=0;right=0;overflow=hidden;strokeColor=inherit;fontSize=16;" parent="Z5hBH6X2v1q_YAVPa5sn-17" vertex="1">
          <mxGeometry width="97" height="30" as="geometry">
            <mxRectangle width="97" height="30" as="alternateBounds" />
          </mxGeometry>
        </mxCell>
        <mxCell id="Z5hBH6X2v1q_YAVPa5sn-19" value="crear func. calc. stock" style="shape=partialRectangle;html=1;whiteSpace=wrap;connectable=0;fillColor=none;top=0;left=0;bottom=0;right=0;align=left;spacingLeft=6;overflow=hidden;strokeColor=inherit;fontSize=16;" parent="Z5hBH6X2v1q_YAVPa5sn-17" vertex="1">
          <mxGeometry x="97" width="383" height="30" as="geometry">
            <mxRectangle width="383" height="30" as="alternateBounds" />
          </mxGeometry>
        </mxCell>
        <mxCell id="Z5hBH6X2v1q_YAVPa5sn-20" value="" style="shape=tableRow;horizontal=0;startSize=0;swimlaneHead=0;swimlaneBody=0;top=0;left=0;bottom=0;right=0;collapsible=0;dropTarget=0;fillColor=none;points=[[0,0.5],[1,0.5]];portConstraint=eastwest;strokeColor=inherit;fontSize=16;" parent="Z5hBH6X2v1q_YAVPa5sn-1" vertex="1">
          <mxGeometry y="180" width="480" height="30" as="geometry" />
        </mxCell>
        <mxCell id="Z5hBH6X2v1q_YAVPa5sn-21" value="&lt;div&gt;6; 3,4 ;4&lt;/div&gt;" style="shape=partialRectangle;html=1;whiteSpace=wrap;connectable=0;fillColor=none;top=0;left=0;bottom=0;right=0;overflow=hidden;strokeColor=inherit;fontSize=16;" parent="Z5hBH6X2v1q_YAVPa5sn-20" vertex="1">
          <mxGeometry width="97" height="30" as="geometry">
            <mxRectangle width="97" height="30" as="alternateBounds" />
          </mxGeometry>
        </mxCell>
        <mxCell id="Z5hBH6X2v1q_YAVPa5sn-22" value="crear func. falta stock" style="shape=partialRectangle;html=1;whiteSpace=wrap;connectable=0;fillColor=none;top=0;left=0;bottom=0;right=0;align=left;spacingLeft=6;overflow=hidden;strokeColor=inherit;fontSize=16;" parent="Z5hBH6X2v1q_YAVPa5sn-20" vertex="1">
          <mxGeometry x="97" width="383" height="30" as="geometry">
            <mxRectangle width="383" height="30" as="alternateBounds" />
          </mxGeometry>
        </mxCell>
        <mxCell id="Z5hBH6X2v1q_YAVPa5sn-23" value="" style="shape=tableRow;horizontal=0;startSize=0;swimlaneHead=0;swimlaneBody=0;top=0;left=0;bottom=0;right=0;collapsible=0;dropTarget=0;fillColor=none;points=[[0,0.5],[1,0.5]];portConstraint=eastwest;strokeColor=inherit;fontSize=16;" parent="Z5hBH6X2v1q_YAVPa5sn-1" vertex="1">
          <mxGeometry y="210" width="480" height="30" as="geometry" />
        </mxCell>
        <mxCell id="Z5hBH6X2v1q_YAVPa5sn-24" value="7; 5,6 ;4" style="shape=partialRectangle;html=1;whiteSpace=wrap;connectable=0;fillColor=none;top=0;left=0;bottom=0;right=0;overflow=hidden;strokeColor=inherit;fontSize=16;" parent="Z5hBH6X2v1q_YAVPa5sn-23" vertex="1">
          <mxGeometry width="97" height="30" as="geometry">
            <mxRectangle width="97" height="30" as="alternateBounds" />
          </mxGeometry>
        </mxCell>
        <mxCell id="Z5hBH6X2v1q_YAVPa5sn-25" value="crear func. advertencia" style="shape=partialRectangle;html=1;whiteSpace=wrap;connectable=0;fillColor=none;top=0;left=0;bottom=0;right=0;align=left;spacingLeft=6;overflow=hidden;strokeColor=inherit;fontSize=16;" parent="Z5hBH6X2v1q_YAVPa5sn-23" vertex="1">
          <mxGeometry x="97" width="383" height="30" as="geometry">
            <mxRectangle width="383" height="30" as="alternateBounds" />
          </mxGeometry>
        </mxCell>
        <mxCell id="Z5hBH6X2v1q_YAVPa5sn-8" value="" style="shape=tableRow;horizontal=0;startSize=0;swimlaneHead=0;swimlaneBody=0;top=0;left=0;bottom=0;right=0;collapsible=0;dropTarget=0;fillColor=none;points=[[0,0.5],[1,0.5]];portConstraint=eastwest;strokeColor=inherit;fontSize=16;" parent="Z5hBH6X2v1q_YAVPa5sn-1" vertex="1">
          <mxGeometry y="240" width="480" height="30" as="geometry" />
        </mxCell>
        <mxCell id="Z5hBH6X2v1q_YAVPa5sn-9" value="8; 7 ;4" style="shape=partialRectangle;html=1;whiteSpace=wrap;connectable=0;fillColor=none;top=0;left=0;bottom=0;right=0;overflow=hidden;strokeColor=inherit;fontSize=16;" parent="Z5hBH6X2v1q_YAVPa5sn-8" vertex="1">
          <mxGeometry width="97" height="30" as="geometry">
            <mxRectangle width="97" height="30" as="alternateBounds" />
          </mxGeometry>
        </mxCell>
        <mxCell id="Z5hBH6X2v1q_YAVPa5sn-10" value="crear funciones compra/venta y almacen de datos&amp;nbsp;&amp;nbsp;" style="shape=partialRectangle;html=1;whiteSpace=wrap;connectable=0;fillColor=none;top=0;left=0;bottom=0;right=0;align=left;spacingLeft=6;overflow=hidden;strokeColor=inherit;fontSize=16;" parent="Z5hBH6X2v1q_YAVPa5sn-8" vertex="1">
          <mxGeometry x="97" width="383" height="30" as="geometry">
            <mxRectangle width="383" height="30" as="alternateBounds" />
          </mxGeometry>
        </mxCell>
        <mxCell id="Z5hBH6X2v1q_YAVPa5sn-26" value="" style="shape=tableRow;horizontal=0;startSize=0;swimlaneHead=0;swimlaneBody=0;top=0;left=0;bottom=0;right=0;collapsible=0;dropTarget=0;fillColor=none;points=[[0,0.5],[1,0.5]];portConstraint=eastwest;strokeColor=inherit;fontSize=16;" parent="Z5hBH6X2v1q_YAVPa5sn-1" vertex="1">
          <mxGeometry y="270" width="480" height="30" as="geometry" />
        </mxCell>
        <mxCell id="Z5hBH6X2v1q_YAVPa5sn-27" value="9; 8 ;4" style="shape=partialRectangle;html=1;whiteSpace=wrap;connectable=0;fillColor=none;top=0;left=0;bottom=0;right=0;overflow=hidden;strokeColor=inherit;fontSize=16;" parent="Z5hBH6X2v1q_YAVPa5sn-26" vertex="1">
          <mxGeometry width="97" height="30" as="geometry">
            <mxRectangle width="97" height="30" as="alternateBounds" />
          </mxGeometry>
        </mxCell>
        <mxCell id="Z5hBH6X2v1q_YAVPa5sn-28" value="crear func. update stock" style="shape=partialRectangle;html=1;whiteSpace=wrap;connectable=0;fillColor=none;top=0;left=0;bottom=0;right=0;align=left;spacingLeft=6;overflow=hidden;strokeColor=inherit;fontSize=16;" parent="Z5hBH6X2v1q_YAVPa5sn-26" vertex="1">
          <mxGeometry x="97" width="383" height="30" as="geometry">
            <mxRectangle width="383" height="30" as="alternateBounds" />
          </mxGeometry>
        </mxCell>
        <mxCell id="Z5hBH6X2v1q_YAVPa5sn-29" value="" style="shape=tableRow;horizontal=0;startSize=0;swimlaneHead=0;swimlaneBody=0;top=0;left=0;bottom=0;right=0;collapsible=0;dropTarget=0;fillColor=none;points=[[0,0.5],[1,0.5]];portConstraint=eastwest;strokeColor=inherit;fontSize=16;" parent="Z5hBH6X2v1q_YAVPa5sn-1" vertex="1">
          <mxGeometry y="300" width="480" height="30" as="geometry" />
        </mxCell>
        <mxCell id="Z5hBH6X2v1q_YAVPa5sn-30" value="10; 9 ;4" style="shape=partialRectangle;html=1;whiteSpace=wrap;connectable=0;fillColor=none;top=0;left=0;bottom=0;right=0;overflow=hidden;strokeColor=inherit;fontSize=16;" parent="Z5hBH6X2v1q_YAVPa5sn-29" vertex="1">
          <mxGeometry width="97" height="30" as="geometry">
            <mxRectangle width="97" height="30" as="alternateBounds" />
          </mxGeometry>
        </mxCell>
        <mxCell id="Z5hBH6X2v1q_YAVPa5sn-31" value="crear func. tomar pedido" style="shape=partialRectangle;html=1;whiteSpace=wrap;connectable=0;fillColor=none;top=0;left=0;bottom=0;right=0;align=left;spacingLeft=6;overflow=hidden;strokeColor=inherit;fontSize=16;" parent="Z5hBH6X2v1q_YAVPa5sn-29" vertex="1">
          <mxGeometry x="97" width="383" height="30" as="geometry">
            <mxRectangle width="383" height="30" as="alternateBounds" />
          </mxGeometry>
        </mxCell>
        <mxCell id="Z5hBH6X2v1q_YAVPa5sn-32" value="" style="shape=tableRow;horizontal=0;startSize=0;swimlaneHead=0;swimlaneBody=0;top=0;left=0;bottom=0;right=0;collapsible=0;dropTarget=0;fillColor=none;points=[[0,0.5],[1,0.5]];portConstraint=eastwest;strokeColor=inherit;fontSize=16;" parent="Z5hBH6X2v1q_YAVPa5sn-1" vertex="1">
          <mxGeometry y="330" width="480" height="30" as="geometry" />
        </mxCell>
        <mxCell id="Z5hBH6X2v1q_YAVPa5sn-33" value="&lt;div&gt;11; 10 ;4&lt;/div&gt;" style="shape=partialRectangle;html=1;whiteSpace=wrap;connectable=0;fillColor=none;top=0;left=0;bottom=0;right=0;overflow=hidden;strokeColor=inherit;fontSize=16;" parent="Z5hBH6X2v1q_YAVPa5sn-32" vertex="1">
          <mxGeometry width="97" height="30" as="geometry">
            <mxRectangle width="97" height="30" as="alternateBounds" />
          </mxGeometry>
        </mxCell>
        <mxCell id="Z5hBH6X2v1q_YAVPa5sn-34" value="crear func. cancelar compra" style="shape=partialRectangle;html=1;whiteSpace=wrap;connectable=0;fillColor=none;top=0;left=0;bottom=0;right=0;align=left;spacingLeft=6;overflow=hidden;strokeColor=inherit;fontSize=16;" parent="Z5hBH6X2v1q_YAVPa5sn-32" vertex="1">
          <mxGeometry x="97" width="383" height="30" as="geometry">
            <mxRectangle width="383" height="30" as="alternateBounds" />
          </mxGeometry>
        </mxCell>
        <mxCell id="aPwg65oClXso-ul-yyPf-1" value="" style="group" vertex="1" connectable="0" parent="1">
          <mxGeometry x="-2750" y="400" width="165" height="180" as="geometry" />
        </mxCell>
        <mxCell id="aPwg65oClXso-ul-yyPf-2" value="INICIO" style="ellipse;whiteSpace=wrap;html=1;aspect=fixed;fillColor=#f8cecc;strokeColor=#b85450;" vertex="1" parent="aPwg65oClXso-ul-yyPf-1">
          <mxGeometry x="45" width="80" height="80" as="geometry" />
        </mxCell>
        <mxCell id="aPwg65oClXso-ul-yyPf-3" value="" style="endArrow=none;html=1;rounded=0;entryX=0.5;entryY=1;entryDx=0;entryDy=0;" edge="1" parent="aPwg65oClXso-ul-yyPf-1" target="aPwg65oClXso-ul-yyPf-2">
          <mxGeometry width="50" height="50" relative="1" as="geometry">
            <mxPoint x="85" y="180" as="sourcePoint" />
            <mxPoint x="205" y="190" as="targetPoint" />
          </mxGeometry>
        </mxCell>
        <mxCell id="aPwg65oClXso-ul-yyPf-4" value="" style="endArrow=none;html=1;rounded=0;" edge="1" parent="aPwg65oClXso-ul-yyPf-1">
          <mxGeometry width="50" height="50" relative="1" as="geometry">
            <mxPoint x="5" y="120" as="sourcePoint" />
            <mxPoint x="165" y="120" as="targetPoint" />
          </mxGeometry>
        </mxCell>
        <mxCell id="aPwg65oClXso-ul-yyPf-5" value="0" style="text;html=1;align=center;verticalAlign=middle;resizable=0;points=[];autosize=1;strokeColor=none;fillColor=none;" vertex="1" parent="aPwg65oClXso-ul-yyPf-1">
          <mxGeometry x="25" y="88" width="30" height="30" as="geometry" />
        </mxCell>
        <mxCell id="aPwg65oClXso-ul-yyPf-6" value="0" style="text;html=1;align=center;verticalAlign=middle;resizable=0;points=[];autosize=1;strokeColor=none;fillColor=none;" vertex="1" parent="aPwg65oClXso-ul-yyPf-1">
          <mxGeometry x="110" y="88" width="30" height="30" as="geometry" />
        </mxCell>
        <mxCell id="aPwg65oClXso-ul-yyPf-7" value="0" style="text;html=1;align=center;verticalAlign=middle;resizable=0;points=[];autosize=1;strokeColor=none;fillColor=none;" vertex="1" parent="aPwg65oClXso-ul-yyPf-1">
          <mxGeometry x="25" y="138" width="30" height="30" as="geometry" />
        </mxCell>
        <mxCell id="aPwg65oClXso-ul-yyPf-8" value="0" style="text;html=1;align=center;verticalAlign=middle;resizable=0;points=[];autosize=1;strokeColor=none;fillColor=none;" vertex="1" parent="aPwg65oClXso-ul-yyPf-1">
          <mxGeometry x="110" y="138" width="30" height="30" as="geometry" />
        </mxCell>
        <mxCell id="aPwg65oClXso-ul-yyPf-17" value="0" style="ellipse;whiteSpace=wrap;html=1;aspect=fixed;" vertex="1" parent="aPwg65oClXso-ul-yyPf-1">
          <mxGeometry x="70" y="50" width="30" height="30" as="geometry" />
        </mxCell>
        <mxCell id="aPwg65oClXso-ul-yyPf-18" value="" style="group" vertex="1" connectable="0" parent="1">
          <mxGeometry x="-2530" y="400" width="165" height="180" as="geometry" />
        </mxCell>
        <mxCell id="aPwg65oClXso-ul-yyPf-19" value="1" style="ellipse;whiteSpace=wrap;html=1;aspect=fixed;fillColor=#f8cecc;strokeColor=#b85450;" vertex="1" parent="aPwg65oClXso-ul-yyPf-18">
          <mxGeometry x="45" width="80" height="80" as="geometry" />
        </mxCell>
        <mxCell id="aPwg65oClXso-ul-yyPf-20" value="" style="endArrow=none;html=1;rounded=0;entryX=0.5;entryY=1;entryDx=0;entryDy=0;" edge="1" parent="aPwg65oClXso-ul-yyPf-18" target="aPwg65oClXso-ul-yyPf-19">
          <mxGeometry width="50" height="50" relative="1" as="geometry">
            <mxPoint x="85" y="180" as="sourcePoint" />
            <mxPoint x="205" y="190" as="targetPoint" />
          </mxGeometry>
        </mxCell>
        <mxCell id="aPwg65oClXso-ul-yyPf-21" value="" style="endArrow=none;html=1;rounded=0;" edge="1" parent="aPwg65oClXso-ul-yyPf-18">
          <mxGeometry width="50" height="50" relative="1" as="geometry">
            <mxPoint x="5" y="120" as="sourcePoint" />
            <mxPoint x="165" y="120" as="targetPoint" />
          </mxGeometry>
        </mxCell>
        <mxCell id="aPwg65oClXso-ul-yyPf-22" value="0" style="text;html=1;align=center;verticalAlign=middle;resizable=0;points=[];autosize=1;strokeColor=none;fillColor=none;" vertex="1" parent="aPwg65oClXso-ul-yyPf-18">
          <mxGeometry x="25" y="88" width="30" height="30" as="geometry" />
        </mxCell>
        <mxCell id="aPwg65oClXso-ul-yyPf-23" value="4" style="text;html=1;align=center;verticalAlign=middle;resizable=0;points=[];autosize=1;strokeColor=none;fillColor=none;" vertex="1" parent="aPwg65oClXso-ul-yyPf-18">
          <mxGeometry x="110" y="88" width="30" height="30" as="geometry" />
        </mxCell>
        <mxCell id="aPwg65oClXso-ul-yyPf-24" value="0" style="text;html=1;align=center;verticalAlign=middle;resizable=0;points=[];autosize=1;strokeColor=none;fillColor=none;" vertex="1" parent="aPwg65oClXso-ul-yyPf-18">
          <mxGeometry x="25" y="138" width="30" height="30" as="geometry" />
        </mxCell>
        <mxCell id="aPwg65oClXso-ul-yyPf-25" value="4" style="text;html=1;align=center;verticalAlign=middle;resizable=0;points=[];autosize=1;strokeColor=none;fillColor=none;" vertex="1" parent="aPwg65oClXso-ul-yyPf-18">
          <mxGeometry x="110" y="138" width="30" height="30" as="geometry" />
        </mxCell>
        <mxCell id="aPwg65oClXso-ul-yyPf-26" value="4" style="ellipse;whiteSpace=wrap;html=1;aspect=fixed;" vertex="1" parent="aPwg65oClXso-ul-yyPf-18">
          <mxGeometry x="70" y="50" width="30" height="30" as="geometry" />
        </mxCell>
        <mxCell id="aPwg65oClXso-ul-yyPf-27" value="" style="group" vertex="1" connectable="0" parent="1">
          <mxGeometry x="-2300" y="400" width="165" height="180" as="geometry" />
        </mxCell>
        <mxCell id="aPwg65oClXso-ul-yyPf-28" value="2" style="ellipse;whiteSpace=wrap;html=1;aspect=fixed;fillColor=#f8cecc;strokeColor=#b85450;" vertex="1" parent="aPwg65oClXso-ul-yyPf-27">
          <mxGeometry x="45" width="80" height="80" as="geometry" />
        </mxCell>
        <mxCell id="aPwg65oClXso-ul-yyPf-29" value="" style="endArrow=none;html=1;rounded=0;entryX=0.5;entryY=1;entryDx=0;entryDy=0;" edge="1" parent="aPwg65oClXso-ul-yyPf-27" target="aPwg65oClXso-ul-yyPf-28">
          <mxGeometry width="50" height="50" relative="1" as="geometry">
            <mxPoint x="85" y="180" as="sourcePoint" />
            <mxPoint x="205" y="190" as="targetPoint" />
          </mxGeometry>
        </mxCell>
        <mxCell id="aPwg65oClXso-ul-yyPf-30" value="" style="endArrow=none;html=1;rounded=0;" edge="1" parent="aPwg65oClXso-ul-yyPf-27">
          <mxGeometry width="50" height="50" relative="1" as="geometry">
            <mxPoint x="5" y="120" as="sourcePoint" />
            <mxPoint x="165" y="120" as="targetPoint" />
          </mxGeometry>
        </mxCell>
        <mxCell id="aPwg65oClXso-ul-yyPf-31" value="4" style="text;html=1;align=center;verticalAlign=middle;resizable=0;points=[];autosize=1;strokeColor=none;fillColor=none;" vertex="1" parent="aPwg65oClXso-ul-yyPf-27">
          <mxGeometry x="25" y="88" width="30" height="30" as="geometry" />
        </mxCell>
        <mxCell id="aPwg65oClXso-ul-yyPf-32" value="5" style="text;html=1;align=center;verticalAlign=middle;resizable=0;points=[];autosize=1;strokeColor=none;fillColor=none;" vertex="1" parent="aPwg65oClXso-ul-yyPf-27">
          <mxGeometry x="110" y="88" width="30" height="30" as="geometry" />
        </mxCell>
        <mxCell id="aPwg65oClXso-ul-yyPf-33" value="4" style="text;html=1;align=center;verticalAlign=middle;resizable=0;points=[];autosize=1;strokeColor=none;fillColor=none;" vertex="1" parent="aPwg65oClXso-ul-yyPf-27">
          <mxGeometry x="25" y="138" width="30" height="30" as="geometry" />
        </mxCell>
        <mxCell id="aPwg65oClXso-ul-yyPf-34" value="5" style="text;html=1;align=center;verticalAlign=middle;resizable=0;points=[];autosize=1;strokeColor=none;fillColor=none;" vertex="1" parent="aPwg65oClXso-ul-yyPf-27">
          <mxGeometry x="110" y="138" width="30" height="30" as="geometry" />
        </mxCell>
        <mxCell id="aPwg65oClXso-ul-yyPf-35" value="1" style="ellipse;whiteSpace=wrap;html=1;aspect=fixed;" vertex="1" parent="aPwg65oClXso-ul-yyPf-27">
          <mxGeometry x="70" y="50" width="30" height="30" as="geometry" />
        </mxCell>
        <mxCell id="aPwg65oClXso-ul-yyPf-36" value="" style="group" vertex="1" connectable="0" parent="1">
          <mxGeometry x="-2060" y="250" width="165" height="180" as="geometry" />
        </mxCell>
        <mxCell id="aPwg65oClXso-ul-yyPf-37" value="3" style="ellipse;whiteSpace=wrap;html=1;aspect=fixed;fillColor=#f8cecc;strokeColor=#b85450;" vertex="1" parent="aPwg65oClXso-ul-yyPf-36">
          <mxGeometry x="45" width="80" height="80" as="geometry" />
        </mxCell>
        <mxCell id="aPwg65oClXso-ul-yyPf-38" value="" style="endArrow=none;html=1;rounded=0;entryX=0.5;entryY=1;entryDx=0;entryDy=0;" edge="1" parent="aPwg65oClXso-ul-yyPf-36" target="aPwg65oClXso-ul-yyPf-37">
          <mxGeometry width="50" height="50" relative="1" as="geometry">
            <mxPoint x="85" y="180" as="sourcePoint" />
            <mxPoint x="205" y="190" as="targetPoint" />
          </mxGeometry>
        </mxCell>
        <mxCell id="aPwg65oClXso-ul-yyPf-39" value="" style="endArrow=none;html=1;rounded=0;" edge="1" parent="aPwg65oClXso-ul-yyPf-36">
          <mxGeometry width="50" height="50" relative="1" as="geometry">
            <mxPoint x="5" y="120" as="sourcePoint" />
            <mxPoint x="165" y="120" as="targetPoint" />
          </mxGeometry>
        </mxCell>
        <mxCell id="aPwg65oClXso-ul-yyPf-40" value="5" style="text;html=1;align=center;verticalAlign=middle;resizable=0;points=[];autosize=1;strokeColor=none;fillColor=none;" vertex="1" parent="aPwg65oClXso-ul-yyPf-36">
          <mxGeometry x="25" y="88" width="30" height="30" as="geometry" />
        </mxCell>
        <mxCell id="aPwg65oClXso-ul-yyPf-41" value="9" style="text;html=1;align=center;verticalAlign=middle;resizable=0;points=[];autosize=1;strokeColor=none;fillColor=none;" vertex="1" parent="aPwg65oClXso-ul-yyPf-36">
          <mxGeometry x="110" y="88" width="30" height="30" as="geometry" />
        </mxCell>
        <mxCell id="aPwg65oClXso-ul-yyPf-42" value="5" style="text;html=1;align=center;verticalAlign=middle;resizable=0;points=[];autosize=1;strokeColor=none;fillColor=none;" vertex="1" parent="aPwg65oClXso-ul-yyPf-36">
          <mxGeometry x="25" y="138" width="30" height="30" as="geometry" />
        </mxCell>
        <mxCell id="aPwg65oClXso-ul-yyPf-43" value="9" style="text;html=1;align=center;verticalAlign=middle;resizable=0;points=[];autosize=1;strokeColor=none;fillColor=none;" vertex="1" parent="aPwg65oClXso-ul-yyPf-36">
          <mxGeometry x="110" y="138" width="30" height="30" as="geometry" />
        </mxCell>
        <mxCell id="aPwg65oClXso-ul-yyPf-44" value="4" style="ellipse;whiteSpace=wrap;html=1;aspect=fixed;" vertex="1" parent="aPwg65oClXso-ul-yyPf-36">
          <mxGeometry x="70" y="50" width="30" height="30" as="geometry" />
        </mxCell>
        <mxCell id="aPwg65oClXso-ul-yyPf-45" value="" style="endArrow=classic;html=1;rounded=0;exitX=1;exitY=0.5;exitDx=0;exitDy=0;entryX=0;entryY=0.5;entryDx=0;entryDy=0;" edge="1" parent="1" source="aPwg65oClXso-ul-yyPf-2" target="aPwg65oClXso-ul-yyPf-19">
          <mxGeometry width="50" height="50" relative="1" as="geometry">
            <mxPoint x="-2560" y="620" as="sourcePoint" />
            <mxPoint x="-2510" y="570" as="targetPoint" />
          </mxGeometry>
        </mxCell>
        <mxCell id="aPwg65oClXso-ul-yyPf-46" style="edgeStyle=orthogonalEdgeStyle;rounded=0;orthogonalLoop=1;jettySize=auto;html=1;exitX=1;exitY=0.5;exitDx=0;exitDy=0;entryX=0;entryY=0.5;entryDx=0;entryDy=0;" edge="1" parent="1" source="aPwg65oClXso-ul-yyPf-19" target="aPwg65oClXso-ul-yyPf-28">
          <mxGeometry relative="1" as="geometry" />
        </mxCell>
        <mxCell id="aPwg65oClXso-ul-yyPf-47" style="rounded=0;orthogonalLoop=1;jettySize=auto;html=1;exitX=1;exitY=0.5;exitDx=0;exitDy=0;entryX=0;entryY=0.5;entryDx=0;entryDy=0;" edge="1" parent="1" source="aPwg65oClXso-ul-yyPf-28" target="aPwg65oClXso-ul-yyPf-37">
          <mxGeometry relative="1" as="geometry" />
        </mxCell>
        <mxCell id="aPwg65oClXso-ul-yyPf-48" value="" style="group" vertex="1" connectable="0" parent="1">
          <mxGeometry x="-2060" y="580" width="165" height="180" as="geometry" />
        </mxCell>
        <mxCell id="aPwg65oClXso-ul-yyPf-49" value="4" style="ellipse;whiteSpace=wrap;html=1;aspect=fixed;fillColor=#f8cecc;strokeColor=#b85450;" vertex="1" parent="aPwg65oClXso-ul-yyPf-48">
          <mxGeometry x="45" width="80" height="80" as="geometry" />
        </mxCell>
        <mxCell id="aPwg65oClXso-ul-yyPf-50" value="" style="endArrow=none;html=1;rounded=0;entryX=0.5;entryY=1;entryDx=0;entryDy=0;" edge="1" parent="aPwg65oClXso-ul-yyPf-48" target="aPwg65oClXso-ul-yyPf-49">
          <mxGeometry width="50" height="50" relative="1" as="geometry">
            <mxPoint x="85" y="180" as="sourcePoint" />
            <mxPoint x="205" y="190" as="targetPoint" />
          </mxGeometry>
        </mxCell>
        <mxCell id="aPwg65oClXso-ul-yyPf-51" value="" style="endArrow=none;html=1;rounded=0;" edge="1" parent="aPwg65oClXso-ul-yyPf-48">
          <mxGeometry width="50" height="50" relative="1" as="geometry">
            <mxPoint x="5" y="120" as="sourcePoint" />
            <mxPoint x="165" y="120" as="targetPoint" />
          </mxGeometry>
        </mxCell>
        <mxCell id="aPwg65oClXso-ul-yyPf-52" value="5" style="text;html=1;align=center;verticalAlign=middle;resizable=0;points=[];autosize=1;strokeColor=none;fillColor=none;" vertex="1" parent="aPwg65oClXso-ul-yyPf-48">
          <mxGeometry x="25" y="88" width="30" height="30" as="geometry" />
        </mxCell>
        <mxCell id="aPwg65oClXso-ul-yyPf-53" value="9" style="text;html=1;align=center;verticalAlign=middle;resizable=0;points=[];autosize=1;strokeColor=none;fillColor=none;" vertex="1" parent="aPwg65oClXso-ul-yyPf-48">
          <mxGeometry x="110" y="88" width="30" height="30" as="geometry" />
        </mxCell>
        <mxCell id="aPwg65oClXso-ul-yyPf-54" value="5" style="text;html=1;align=center;verticalAlign=middle;resizable=0;points=[];autosize=1;strokeColor=none;fillColor=none;" vertex="1" parent="aPwg65oClXso-ul-yyPf-48">
          <mxGeometry x="25" y="138" width="30" height="30" as="geometry" />
        </mxCell>
        <mxCell id="aPwg65oClXso-ul-yyPf-55" value="9" style="text;html=1;align=center;verticalAlign=middle;resizable=0;points=[];autosize=1;strokeColor=none;fillColor=none;" vertex="1" parent="aPwg65oClXso-ul-yyPf-48">
          <mxGeometry x="110" y="138" width="30" height="30" as="geometry" />
        </mxCell>
        <mxCell id="aPwg65oClXso-ul-yyPf-56" value="4" style="ellipse;whiteSpace=wrap;html=1;aspect=fixed;" vertex="1" parent="aPwg65oClXso-ul-yyPf-48">
          <mxGeometry x="70" y="50" width="30" height="30" as="geometry" />
        </mxCell>
        <mxCell id="aPwg65oClXso-ul-yyPf-57" style="rounded=0;orthogonalLoop=1;jettySize=auto;html=1;entryX=0;entryY=0.5;entryDx=0;entryDy=0;" edge="1" parent="1" source="aPwg65oClXso-ul-yyPf-28" target="aPwg65oClXso-ul-yyPf-49">
          <mxGeometry relative="1" as="geometry" />
        </mxCell>
        <mxCell id="aPwg65oClXso-ul-yyPf-74" style="rounded=0;orthogonalLoop=1;jettySize=auto;html=1;entryX=0;entryY=0.5;entryDx=0;entryDy=0;" edge="1" parent="1" source="aPwg65oClXso-ul-yyPf-37" target="aPwg65oClXso-ul-yyPf-66">
          <mxGeometry relative="1" as="geometry" />
        </mxCell>
        <mxCell id="aPwg65oClXso-ul-yyPf-76" style="rounded=0;orthogonalLoop=1;jettySize=auto;html=1;entryX=0.033;entryY=0.702;entryDx=0;entryDy=0;entryPerimeter=0;" edge="1" parent="1" source="aPwg65oClXso-ul-yyPf-49" target="aPwg65oClXso-ul-yyPf-66">
          <mxGeometry relative="1" as="geometry">
            <mxPoint x="-1760" y="390" as="targetPoint" />
          </mxGeometry>
        </mxCell>
        <mxCell id="aPwg65oClXso-ul-yyPf-86" style="rounded=0;orthogonalLoop=1;jettySize=auto;html=1;exitX=1;exitY=1;exitDx=0;exitDy=0;entryX=0;entryY=0;entryDx=0;entryDy=0;" edge="1" parent="1" source="aPwg65oClXso-ul-yyPf-37" target="aPwg65oClXso-ul-yyPf-78">
          <mxGeometry relative="1" as="geometry" />
        </mxCell>
        <mxCell id="aPwg65oClXso-ul-yyPf-87" style="rounded=0;orthogonalLoop=1;jettySize=auto;html=1;entryX=0;entryY=0.5;entryDx=0;entryDy=0;" edge="1" parent="1" source="aPwg65oClXso-ul-yyPf-49" target="aPwg65oClXso-ul-yyPf-78">
          <mxGeometry relative="1" as="geometry" />
        </mxCell>
        <mxCell id="aPwg65oClXso-ul-yyPf-89" value="" style="group" vertex="1" connectable="0" parent="1">
          <mxGeometry x="-1570" y="360" width="165" height="180" as="geometry" />
        </mxCell>
        <mxCell id="aPwg65oClXso-ul-yyPf-90" value="7" style="ellipse;whiteSpace=wrap;html=1;aspect=fixed;fillColor=#f8cecc;strokeColor=#b85450;" vertex="1" parent="aPwg65oClXso-ul-yyPf-89">
          <mxGeometry x="45" width="80" height="80" as="geometry" />
        </mxCell>
        <mxCell id="aPwg65oClXso-ul-yyPf-91" value="" style="endArrow=none;html=1;rounded=0;entryX=0.5;entryY=1;entryDx=0;entryDy=0;" edge="1" parent="aPwg65oClXso-ul-yyPf-89" target="aPwg65oClXso-ul-yyPf-90">
          <mxGeometry width="50" height="50" relative="1" as="geometry">
            <mxPoint x="85" y="180" as="sourcePoint" />
            <mxPoint x="205" y="190" as="targetPoint" />
          </mxGeometry>
        </mxCell>
        <mxCell id="aPwg65oClXso-ul-yyPf-92" value="" style="endArrow=none;html=1;rounded=0;" edge="1" parent="aPwg65oClXso-ul-yyPf-89">
          <mxGeometry width="50" height="50" relative="1" as="geometry">
            <mxPoint x="5" y="120" as="sourcePoint" />
            <mxPoint x="165" y="120" as="targetPoint" />
          </mxGeometry>
        </mxCell>
        <mxCell id="aPwg65oClXso-ul-yyPf-93" value="13" style="text;html=1;align=center;verticalAlign=middle;resizable=0;points=[];autosize=1;strokeColor=none;fillColor=none;" vertex="1" parent="aPwg65oClXso-ul-yyPf-89">
          <mxGeometry x="20" y="88" width="40" height="30" as="geometry" />
        </mxCell>
        <mxCell id="aPwg65oClXso-ul-yyPf-94" value="17" style="text;html=1;align=center;verticalAlign=middle;resizable=0;points=[];autosize=1;strokeColor=none;fillColor=none;" vertex="1" parent="aPwg65oClXso-ul-yyPf-89">
          <mxGeometry x="105" y="88" width="40" height="30" as="geometry" />
        </mxCell>
        <mxCell id="aPwg65oClXso-ul-yyPf-96" value="17" style="text;html=1;align=center;verticalAlign=middle;resizable=0;points=[];autosize=1;strokeColor=none;fillColor=none;" vertex="1" parent="aPwg65oClXso-ul-yyPf-89">
          <mxGeometry x="105" y="138" width="40" height="30" as="geometry" />
        </mxCell>
        <mxCell id="aPwg65oClXso-ul-yyPf-97" value="4" style="ellipse;whiteSpace=wrap;html=1;aspect=fixed;" vertex="1" parent="aPwg65oClXso-ul-yyPf-89">
          <mxGeometry x="70" y="50" width="30" height="30" as="geometry" />
        </mxCell>
        <mxCell id="aPwg65oClXso-ul-yyPf-95" value="13" style="text;html=1;align=center;verticalAlign=middle;resizable=0;points=[];autosize=1;strokeColor=none;fillColor=none;" vertex="1" parent="aPwg65oClXso-ul-yyPf-89">
          <mxGeometry x="20" y="138" width="40" height="30" as="geometry" />
        </mxCell>
        <mxCell id="aPwg65oClXso-ul-yyPf-98" style="rounded=0;orthogonalLoop=1;jettySize=auto;html=1;entryX=0;entryY=0;entryDx=0;entryDy=0;" edge="1" parent="1" source="aPwg65oClXso-ul-yyPf-66" target="aPwg65oClXso-ul-yyPf-90">
          <mxGeometry relative="1" as="geometry" />
        </mxCell>
        <mxCell id="aPwg65oClXso-ul-yyPf-99" style="rounded=0;orthogonalLoop=1;jettySize=auto;html=1;entryX=0;entryY=0.5;entryDx=0;entryDy=0;" edge="1" parent="1" source="aPwg65oClXso-ul-yyPf-78" target="aPwg65oClXso-ul-yyPf-90">
          <mxGeometry relative="1" as="geometry">
            <mxPoint x="-1530" y="400" as="targetPoint" />
          </mxGeometry>
        </mxCell>
        <mxCell id="aPwg65oClXso-ul-yyPf-100" value="" style="group" vertex="1" connectable="0" parent="1">
          <mxGeometry x="-1360" y="360" width="165" height="180" as="geometry" />
        </mxCell>
        <mxCell id="aPwg65oClXso-ul-yyPf-101" value="8" style="ellipse;whiteSpace=wrap;html=1;aspect=fixed;fillColor=#f8cecc;strokeColor=#b85450;" vertex="1" parent="aPwg65oClXso-ul-yyPf-100">
          <mxGeometry x="45" width="80" height="80" as="geometry" />
        </mxCell>
        <mxCell id="aPwg65oClXso-ul-yyPf-102" value="" style="endArrow=none;html=1;rounded=0;entryX=0.5;entryY=1;entryDx=0;entryDy=0;" edge="1" parent="aPwg65oClXso-ul-yyPf-100" target="aPwg65oClXso-ul-yyPf-101">
          <mxGeometry width="50" height="50" relative="1" as="geometry">
            <mxPoint x="85" y="180" as="sourcePoint" />
            <mxPoint x="205" y="190" as="targetPoint" />
          </mxGeometry>
        </mxCell>
        <mxCell id="aPwg65oClXso-ul-yyPf-103" value="" style="endArrow=none;html=1;rounded=0;" edge="1" parent="aPwg65oClXso-ul-yyPf-100">
          <mxGeometry width="50" height="50" relative="1" as="geometry">
            <mxPoint x="5" y="120" as="sourcePoint" />
            <mxPoint x="165" y="120" as="targetPoint" />
          </mxGeometry>
        </mxCell>
        <mxCell id="aPwg65oClXso-ul-yyPf-104" value="17" style="text;html=1;align=center;verticalAlign=middle;resizable=0;points=[];autosize=1;strokeColor=none;fillColor=none;" vertex="1" parent="aPwg65oClXso-ul-yyPf-100">
          <mxGeometry x="20" y="88" width="40" height="30" as="geometry" />
        </mxCell>
        <mxCell id="aPwg65oClXso-ul-yyPf-105" value="21" style="text;html=1;align=center;verticalAlign=middle;resizable=0;points=[];autosize=1;strokeColor=none;fillColor=none;" vertex="1" parent="aPwg65oClXso-ul-yyPf-100">
          <mxGeometry x="105" y="88" width="40" height="30" as="geometry" />
        </mxCell>
        <mxCell id="aPwg65oClXso-ul-yyPf-106" value="17" style="text;html=1;align=center;verticalAlign=middle;resizable=0;points=[];autosize=1;strokeColor=none;fillColor=none;" vertex="1" parent="aPwg65oClXso-ul-yyPf-100">
          <mxGeometry x="20" y="138" width="40" height="30" as="geometry" />
        </mxCell>
        <mxCell id="aPwg65oClXso-ul-yyPf-107" value="21" style="text;html=1;align=center;verticalAlign=middle;resizable=0;points=[];autosize=1;strokeColor=none;fillColor=none;" vertex="1" parent="aPwg65oClXso-ul-yyPf-100">
          <mxGeometry x="105" y="138" width="40" height="30" as="geometry" />
        </mxCell>
        <mxCell id="aPwg65oClXso-ul-yyPf-108" value="4" style="ellipse;whiteSpace=wrap;html=1;aspect=fixed;" vertex="1" parent="aPwg65oClXso-ul-yyPf-100">
          <mxGeometry x="70" y="50" width="30" height="30" as="geometry" />
        </mxCell>
        <mxCell id="aPwg65oClXso-ul-yyPf-109" value="" style="group" vertex="1" connectable="0" parent="1">
          <mxGeometry x="-1150" y="360" width="165" height="180" as="geometry" />
        </mxCell>
        <mxCell id="aPwg65oClXso-ul-yyPf-110" value="9" style="ellipse;whiteSpace=wrap;html=1;aspect=fixed;fillColor=#f8cecc;strokeColor=#b85450;" vertex="1" parent="aPwg65oClXso-ul-yyPf-109">
          <mxGeometry x="45" width="80" height="80" as="geometry" />
        </mxCell>
        <mxCell id="aPwg65oClXso-ul-yyPf-111" value="" style="endArrow=none;html=1;rounded=0;entryX=0.5;entryY=1;entryDx=0;entryDy=0;" edge="1" parent="aPwg65oClXso-ul-yyPf-109" target="aPwg65oClXso-ul-yyPf-110">
          <mxGeometry width="50" height="50" relative="1" as="geometry">
            <mxPoint x="85" y="180" as="sourcePoint" />
            <mxPoint x="205" y="190" as="targetPoint" />
          </mxGeometry>
        </mxCell>
        <mxCell id="aPwg65oClXso-ul-yyPf-112" value="" style="endArrow=none;html=1;rounded=0;" edge="1" parent="aPwg65oClXso-ul-yyPf-109">
          <mxGeometry width="50" height="50" relative="1" as="geometry">
            <mxPoint x="5" y="120" as="sourcePoint" />
            <mxPoint x="165" y="120" as="targetPoint" />
          </mxGeometry>
        </mxCell>
        <mxCell id="aPwg65oClXso-ul-yyPf-113" value="21" style="text;html=1;align=center;verticalAlign=middle;resizable=0;points=[];autosize=1;strokeColor=none;fillColor=none;" vertex="1" parent="aPwg65oClXso-ul-yyPf-109">
          <mxGeometry x="20" y="88" width="40" height="30" as="geometry" />
        </mxCell>
        <mxCell id="aPwg65oClXso-ul-yyPf-114" value="25" style="text;html=1;align=center;verticalAlign=middle;resizable=0;points=[];autosize=1;strokeColor=none;fillColor=none;" vertex="1" parent="aPwg65oClXso-ul-yyPf-109">
          <mxGeometry x="105" y="88" width="40" height="30" as="geometry" />
        </mxCell>
        <mxCell id="aPwg65oClXso-ul-yyPf-115" value="21" style="text;html=1;align=center;verticalAlign=middle;resizable=0;points=[];autosize=1;strokeColor=none;fillColor=none;" vertex="1" parent="aPwg65oClXso-ul-yyPf-109">
          <mxGeometry x="20" y="138" width="40" height="30" as="geometry" />
        </mxCell>
        <mxCell id="aPwg65oClXso-ul-yyPf-116" value="25" style="text;html=1;align=center;verticalAlign=middle;resizable=0;points=[];autosize=1;strokeColor=none;fillColor=none;" vertex="1" parent="aPwg65oClXso-ul-yyPf-109">
          <mxGeometry x="105" y="138" width="40" height="30" as="geometry" />
        </mxCell>
        <mxCell id="aPwg65oClXso-ul-yyPf-117" value="4" style="ellipse;whiteSpace=wrap;html=1;aspect=fixed;" vertex="1" parent="aPwg65oClXso-ul-yyPf-109">
          <mxGeometry x="70" y="50" width="30" height="30" as="geometry" />
        </mxCell>
        <mxCell id="aPwg65oClXso-ul-yyPf-118" value="" style="group" vertex="1" connectable="0" parent="1">
          <mxGeometry x="-940" y="360" width="165" height="180" as="geometry" />
        </mxCell>
        <mxCell id="aPwg65oClXso-ul-yyPf-119" value="10" style="ellipse;whiteSpace=wrap;html=1;aspect=fixed;fillColor=#f8cecc;strokeColor=#b85450;" vertex="1" parent="aPwg65oClXso-ul-yyPf-118">
          <mxGeometry x="45" width="80" height="80" as="geometry" />
        </mxCell>
        <mxCell id="aPwg65oClXso-ul-yyPf-120" value="" style="endArrow=none;html=1;rounded=0;entryX=0.5;entryY=1;entryDx=0;entryDy=0;" edge="1" parent="aPwg65oClXso-ul-yyPf-118" target="aPwg65oClXso-ul-yyPf-119">
          <mxGeometry width="50" height="50" relative="1" as="geometry">
            <mxPoint x="85" y="180" as="sourcePoint" />
            <mxPoint x="205" y="190" as="targetPoint" />
          </mxGeometry>
        </mxCell>
        <mxCell id="aPwg65oClXso-ul-yyPf-121" value="" style="endArrow=none;html=1;rounded=0;" edge="1" parent="aPwg65oClXso-ul-yyPf-118">
          <mxGeometry width="50" height="50" relative="1" as="geometry">
            <mxPoint x="5" y="120" as="sourcePoint" />
            <mxPoint x="165" y="120" as="targetPoint" />
          </mxGeometry>
        </mxCell>
        <mxCell id="aPwg65oClXso-ul-yyPf-122" value="25" style="text;html=1;align=center;verticalAlign=middle;resizable=0;points=[];autosize=1;strokeColor=none;fillColor=none;" vertex="1" parent="aPwg65oClXso-ul-yyPf-118">
          <mxGeometry x="20" y="88" width="40" height="30" as="geometry" />
        </mxCell>
        <mxCell id="aPwg65oClXso-ul-yyPf-123" value="29" style="text;html=1;align=center;verticalAlign=middle;resizable=0;points=[];autosize=1;strokeColor=none;fillColor=none;" vertex="1" parent="aPwg65oClXso-ul-yyPf-118">
          <mxGeometry x="105" y="88" width="40" height="30" as="geometry" />
        </mxCell>
        <mxCell id="aPwg65oClXso-ul-yyPf-124" value="25" style="text;html=1;align=center;verticalAlign=middle;resizable=0;points=[];autosize=1;strokeColor=none;fillColor=none;" vertex="1" parent="aPwg65oClXso-ul-yyPf-118">
          <mxGeometry x="20" y="138" width="40" height="30" as="geometry" />
        </mxCell>
        <mxCell id="aPwg65oClXso-ul-yyPf-125" value="29" style="text;html=1;align=center;verticalAlign=middle;resizable=0;points=[];autosize=1;strokeColor=none;fillColor=none;" vertex="1" parent="aPwg65oClXso-ul-yyPf-118">
          <mxGeometry x="105" y="138" width="40" height="30" as="geometry" />
        </mxCell>
        <mxCell id="aPwg65oClXso-ul-yyPf-126" value="4" style="ellipse;whiteSpace=wrap;html=1;aspect=fixed;" vertex="1" parent="aPwg65oClXso-ul-yyPf-118">
          <mxGeometry x="70" y="50" width="30" height="30" as="geometry" />
        </mxCell>
        <mxCell id="aPwg65oClXso-ul-yyPf-127" value="" style="group" vertex="1" connectable="0" parent="1">
          <mxGeometry x="-720" y="360" width="165" height="180" as="geometry" />
        </mxCell>
        <mxCell id="aPwg65oClXso-ul-yyPf-128" value="11" style="ellipse;whiteSpace=wrap;html=1;aspect=fixed;fillColor=#f8cecc;strokeColor=#b85450;" vertex="1" parent="aPwg65oClXso-ul-yyPf-127">
          <mxGeometry x="45" width="80" height="80" as="geometry" />
        </mxCell>
        <mxCell id="aPwg65oClXso-ul-yyPf-129" value="" style="endArrow=none;html=1;rounded=0;entryX=0.5;entryY=1;entryDx=0;entryDy=0;" edge="1" parent="aPwg65oClXso-ul-yyPf-127" target="aPwg65oClXso-ul-yyPf-128">
          <mxGeometry width="50" height="50" relative="1" as="geometry">
            <mxPoint x="85" y="180" as="sourcePoint" />
            <mxPoint x="205" y="190" as="targetPoint" />
          </mxGeometry>
        </mxCell>
        <mxCell id="aPwg65oClXso-ul-yyPf-130" value="" style="endArrow=none;html=1;rounded=0;" edge="1" parent="aPwg65oClXso-ul-yyPf-127">
          <mxGeometry width="50" height="50" relative="1" as="geometry">
            <mxPoint x="5" y="120" as="sourcePoint" />
            <mxPoint x="165" y="120" as="targetPoint" />
          </mxGeometry>
        </mxCell>
        <mxCell id="aPwg65oClXso-ul-yyPf-131" value="29" style="text;html=1;align=center;verticalAlign=middle;resizable=0;points=[];autosize=1;strokeColor=none;fillColor=none;" vertex="1" parent="aPwg65oClXso-ul-yyPf-127">
          <mxGeometry x="20" y="88" width="40" height="30" as="geometry" />
        </mxCell>
        <mxCell id="aPwg65oClXso-ul-yyPf-132" value="33" style="text;html=1;align=center;verticalAlign=middle;resizable=0;points=[];autosize=1;strokeColor=none;fillColor=none;" vertex="1" parent="aPwg65oClXso-ul-yyPf-127">
          <mxGeometry x="105" y="88" width="40" height="30" as="geometry" />
        </mxCell>
        <mxCell id="aPwg65oClXso-ul-yyPf-133" value="29" style="text;html=1;align=center;verticalAlign=middle;resizable=0;points=[];autosize=1;strokeColor=none;fillColor=none;" vertex="1" parent="aPwg65oClXso-ul-yyPf-127">
          <mxGeometry x="20" y="138" width="40" height="30" as="geometry" />
        </mxCell>
        <mxCell id="aPwg65oClXso-ul-yyPf-134" value="33" style="text;html=1;align=center;verticalAlign=middle;resizable=0;points=[];autosize=1;strokeColor=none;fillColor=none;" vertex="1" parent="aPwg65oClXso-ul-yyPf-127">
          <mxGeometry x="105" y="138" width="40" height="30" as="geometry" />
        </mxCell>
        <mxCell id="aPwg65oClXso-ul-yyPf-135" value="4" style="ellipse;whiteSpace=wrap;html=1;aspect=fixed;" vertex="1" parent="aPwg65oClXso-ul-yyPf-127">
          <mxGeometry x="70" y="50" width="30" height="30" as="geometry" />
        </mxCell>
        <mxCell id="aPwg65oClXso-ul-yyPf-136" value="" style="group" vertex="1" connectable="0" parent="1">
          <mxGeometry x="-510" y="360" width="165" height="180" as="geometry" />
        </mxCell>
        <mxCell id="aPwg65oClXso-ul-yyPf-137" value="FIN" style="ellipse;whiteSpace=wrap;html=1;aspect=fixed;fillColor=#f8cecc;strokeColor=#b85450;" vertex="1" parent="aPwg65oClXso-ul-yyPf-136">
          <mxGeometry x="45" width="80" height="80" as="geometry" />
        </mxCell>
        <mxCell id="aPwg65oClXso-ul-yyPf-138" value="" style="endArrow=none;html=1;rounded=0;entryX=0.5;entryY=1;entryDx=0;entryDy=0;" edge="1" parent="aPwg65oClXso-ul-yyPf-136" target="aPwg65oClXso-ul-yyPf-137">
          <mxGeometry width="50" height="50" relative="1" as="geometry">
            <mxPoint x="85" y="180" as="sourcePoint" />
            <mxPoint x="205" y="190" as="targetPoint" />
          </mxGeometry>
        </mxCell>
        <mxCell id="aPwg65oClXso-ul-yyPf-139" value="" style="endArrow=none;html=1;rounded=0;" edge="1" parent="aPwg65oClXso-ul-yyPf-136">
          <mxGeometry width="50" height="50" relative="1" as="geometry">
            <mxPoint x="5" y="120" as="sourcePoint" />
            <mxPoint x="165" y="120" as="targetPoint" />
          </mxGeometry>
        </mxCell>
        <mxCell id="aPwg65oClXso-ul-yyPf-140" value="33" style="text;html=1;align=center;verticalAlign=middle;resizable=0;points=[];autosize=1;strokeColor=none;fillColor=none;" vertex="1" parent="aPwg65oClXso-ul-yyPf-136">
          <mxGeometry x="20" y="88" width="40" height="30" as="geometry" />
        </mxCell>
        <mxCell id="aPwg65oClXso-ul-yyPf-141" value="33" style="text;html=1;align=center;verticalAlign=middle;resizable=0;points=[];autosize=1;strokeColor=none;fillColor=none;" vertex="1" parent="aPwg65oClXso-ul-yyPf-136">
          <mxGeometry x="105" y="88" width="40" height="30" as="geometry" />
        </mxCell>
        <mxCell id="aPwg65oClXso-ul-yyPf-142" value="33" style="text;html=1;align=center;verticalAlign=middle;resizable=0;points=[];autosize=1;strokeColor=none;fillColor=none;" vertex="1" parent="aPwg65oClXso-ul-yyPf-136">
          <mxGeometry x="20" y="138" width="40" height="30" as="geometry" />
        </mxCell>
        <mxCell id="aPwg65oClXso-ul-yyPf-143" value="33" style="text;html=1;align=center;verticalAlign=middle;resizable=0;points=[];autosize=1;strokeColor=none;fillColor=none;" vertex="1" parent="aPwg65oClXso-ul-yyPf-136">
          <mxGeometry x="105" y="138" width="40" height="30" as="geometry" />
        </mxCell>
        <mxCell id="aPwg65oClXso-ul-yyPf-144" value="0" style="ellipse;whiteSpace=wrap;html=1;aspect=fixed;" vertex="1" parent="aPwg65oClXso-ul-yyPf-136">
          <mxGeometry x="70" y="50" width="30" height="30" as="geometry" />
        </mxCell>
        <mxCell id="aPwg65oClXso-ul-yyPf-145" style="edgeStyle=orthogonalEdgeStyle;rounded=0;orthogonalLoop=1;jettySize=auto;html=1;entryX=0;entryY=0.5;entryDx=0;entryDy=0;" edge="1" parent="1" source="aPwg65oClXso-ul-yyPf-90" target="aPwg65oClXso-ul-yyPf-101">
          <mxGeometry relative="1" as="geometry" />
        </mxCell>
        <mxCell id="aPwg65oClXso-ul-yyPf-146" style="edgeStyle=orthogonalEdgeStyle;rounded=0;orthogonalLoop=1;jettySize=auto;html=1;entryX=0;entryY=0.5;entryDx=0;entryDy=0;" edge="1" parent="1" source="aPwg65oClXso-ul-yyPf-101" target="aPwg65oClXso-ul-yyPf-110">
          <mxGeometry relative="1" as="geometry" />
        </mxCell>
        <mxCell id="aPwg65oClXso-ul-yyPf-147" style="edgeStyle=orthogonalEdgeStyle;rounded=0;orthogonalLoop=1;jettySize=auto;html=1;entryX=0;entryY=0.5;entryDx=0;entryDy=0;" edge="1" parent="1" source="aPwg65oClXso-ul-yyPf-110" target="aPwg65oClXso-ul-yyPf-119">
          <mxGeometry relative="1" as="geometry" />
        </mxCell>
        <mxCell id="aPwg65oClXso-ul-yyPf-148" style="edgeStyle=orthogonalEdgeStyle;rounded=0;orthogonalLoop=1;jettySize=auto;html=1;entryX=0;entryY=0.5;entryDx=0;entryDy=0;" edge="1" parent="1" source="aPwg65oClXso-ul-yyPf-119" target="aPwg65oClXso-ul-yyPf-128">
          <mxGeometry relative="1" as="geometry" />
        </mxCell>
        <mxCell id="aPwg65oClXso-ul-yyPf-149" style="edgeStyle=orthogonalEdgeStyle;rounded=0;orthogonalLoop=1;jettySize=auto;html=1;" edge="1" parent="1" source="aPwg65oClXso-ul-yyPf-128" target="aPwg65oClXso-ul-yyPf-137">
          <mxGeometry relative="1" as="geometry" />
        </mxCell>
        <mxCell id="aPwg65oClXso-ul-yyPf-150" value="H = 0" style="text;html=1;align=center;verticalAlign=middle;resizable=0;points=[];autosize=1;strokeColor=none;fillColor=none;" vertex="1" parent="1">
          <mxGeometry x="-465" y="568" width="50" height="30" as="geometry" />
        </mxCell>
        <mxCell id="aPwg65oClXso-ul-yyPf-151" value="H = 0" style="text;html=1;align=center;verticalAlign=middle;resizable=0;points=[];autosize=1;strokeColor=none;fillColor=none;" vertex="1" parent="1">
          <mxGeometry x="-662.5" y="550" width="50" height="30" as="geometry" />
        </mxCell>
        <mxCell id="aPwg65oClXso-ul-yyPf-152" value="H = 0" style="text;html=1;align=center;verticalAlign=middle;resizable=0;points=[];autosize=1;strokeColor=none;fillColor=none;" vertex="1" parent="1">
          <mxGeometry x="-882.5" y="550" width="50" height="30" as="geometry" />
        </mxCell>
        <mxCell id="aPwg65oClXso-ul-yyPf-153" value="H = 0" style="text;html=1;align=center;verticalAlign=middle;resizable=0;points=[];autosize=1;strokeColor=none;fillColor=none;" vertex="1" parent="1">
          <mxGeometry x="-1090" y="555" width="50" height="30" as="geometry" />
        </mxCell>
        <mxCell id="aPwg65oClXso-ul-yyPf-154" value="H = 0" style="text;html=1;align=center;verticalAlign=middle;resizable=0;points=[];autosize=1;strokeColor=none;fillColor=none;" vertex="1" parent="1">
          <mxGeometry x="-1302.5" y="555" width="50" height="30" as="geometry" />
        </mxCell>
        <mxCell id="aPwg65oClXso-ul-yyPf-155" value="H = 0" style="text;html=1;align=center;verticalAlign=middle;resizable=0;points=[];autosize=1;strokeColor=none;fillColor=none;" vertex="1" parent="1">
          <mxGeometry x="-1512.5" y="560" width="50" height="30" as="geometry" />
        </mxCell>
        <mxCell id="aPwg65oClXso-ul-yyPf-157" value="H = 0" style="text;html=1;align=center;verticalAlign=middle;resizable=0;points=[];autosize=1;strokeColor=none;fillColor=none;" vertex="1" parent="1">
          <mxGeometry x="-1730" y="780" width="50" height="30" as="geometry" />
        </mxCell>
        <mxCell id="aPwg65oClXso-ul-yyPf-158" value="H = 0" style="text;html=1;align=center;verticalAlign=middle;resizable=0;points=[];autosize=1;strokeColor=none;fillColor=none;" vertex="1" parent="1">
          <mxGeometry x="-2002.5" y="770" width="50" height="30" as="geometry" />
        </mxCell>
        <mxCell id="aPwg65oClXso-ul-yyPf-66" value="5" style="ellipse;whiteSpace=wrap;html=1;aspect=fixed;fillColor=#f8cecc;strokeColor=#b85450;" vertex="1" parent="1">
          <mxGeometry x="-1765" y="250" width="80" height="80" as="geometry" />
        </mxCell>
        <mxCell id="aPwg65oClXso-ul-yyPf-67" value="" style="endArrow=none;html=1;rounded=0;entryX=0.5;entryY=1;entryDx=0;entryDy=0;" edge="1" parent="1" target="aPwg65oClXso-ul-yyPf-66">
          <mxGeometry width="50" height="50" relative="1" as="geometry">
            <mxPoint x="-1725" y="430" as="sourcePoint" />
            <mxPoint x="-1605" y="440" as="targetPoint" />
          </mxGeometry>
        </mxCell>
        <mxCell id="aPwg65oClXso-ul-yyPf-68" value="" style="endArrow=none;html=1;rounded=0;" edge="1" parent="1">
          <mxGeometry width="50" height="50" relative="1" as="geometry">
            <mxPoint x="-1805" y="370" as="sourcePoint" />
            <mxPoint x="-1645" y="370" as="targetPoint" />
          </mxGeometry>
        </mxCell>
        <mxCell id="aPwg65oClXso-ul-yyPf-69" value="9" style="text;html=1;align=center;verticalAlign=middle;resizable=0;points=[];autosize=1;strokeColor=none;fillColor=none;" vertex="1" parent="1">
          <mxGeometry x="-1785" y="338" width="30" height="30" as="geometry" />
        </mxCell>
        <mxCell id="aPwg65oClXso-ul-yyPf-70" value="13" style="text;html=1;align=center;verticalAlign=middle;resizable=0;points=[];autosize=1;strokeColor=none;fillColor=none;" vertex="1" parent="1">
          <mxGeometry x="-1705" y="338" width="40" height="30" as="geometry" />
        </mxCell>
        <mxCell id="aPwg65oClXso-ul-yyPf-71" value="9" style="text;html=1;align=center;verticalAlign=middle;resizable=0;points=[];autosize=1;strokeColor=none;fillColor=none;" vertex="1" parent="1">
          <mxGeometry x="-1785" y="388" width="30" height="30" as="geometry" />
        </mxCell>
        <mxCell id="aPwg65oClXso-ul-yyPf-72" value="13" style="text;html=1;align=center;verticalAlign=middle;resizable=0;points=[];autosize=1;strokeColor=none;fillColor=none;" vertex="1" parent="1">
          <mxGeometry x="-1705" y="388" width="40" height="30" as="geometry" />
        </mxCell>
        <mxCell id="aPwg65oClXso-ul-yyPf-73" value="4" style="ellipse;whiteSpace=wrap;html=1;aspect=fixed;" vertex="1" parent="1">
          <mxGeometry x="-1740" y="300" width="30" height="30" as="geometry" />
        </mxCell>
        <mxCell id="aPwg65oClXso-ul-yyPf-77" value="" style="group" vertex="1" connectable="0" parent="1">
          <mxGeometry x="-1795" y="580" width="165" height="180" as="geometry" />
        </mxCell>
        <mxCell id="aPwg65oClXso-ul-yyPf-78" value="6" style="ellipse;whiteSpace=wrap;html=1;aspect=fixed;fillColor=#f8cecc;strokeColor=#b85450;" vertex="1" parent="aPwg65oClXso-ul-yyPf-77">
          <mxGeometry x="45" width="80" height="80" as="geometry" />
        </mxCell>
        <mxCell id="aPwg65oClXso-ul-yyPf-79" value="" style="endArrow=none;html=1;rounded=0;entryX=0.5;entryY=1;entryDx=0;entryDy=0;" edge="1" parent="aPwg65oClXso-ul-yyPf-77" target="aPwg65oClXso-ul-yyPf-78">
          <mxGeometry width="50" height="50" relative="1" as="geometry">
            <mxPoint x="85" y="180" as="sourcePoint" />
            <mxPoint x="205" y="190" as="targetPoint" />
          </mxGeometry>
        </mxCell>
        <mxCell id="aPwg65oClXso-ul-yyPf-80" value="" style="endArrow=none;html=1;rounded=0;" edge="1" parent="aPwg65oClXso-ul-yyPf-77">
          <mxGeometry width="50" height="50" relative="1" as="geometry">
            <mxPoint x="5" y="120" as="sourcePoint" />
            <mxPoint x="165" y="120" as="targetPoint" />
          </mxGeometry>
        </mxCell>
        <mxCell id="aPwg65oClXso-ul-yyPf-81" value="9" style="text;html=1;align=center;verticalAlign=middle;resizable=0;points=[];autosize=1;strokeColor=none;fillColor=none;" vertex="1" parent="aPwg65oClXso-ul-yyPf-77">
          <mxGeometry x="25" y="88" width="30" height="30" as="geometry" />
        </mxCell>
        <mxCell id="aPwg65oClXso-ul-yyPf-82" value="13" style="text;html=1;align=center;verticalAlign=middle;resizable=0;points=[];autosize=1;strokeColor=none;fillColor=none;" vertex="1" parent="aPwg65oClXso-ul-yyPf-77">
          <mxGeometry x="105" y="88" width="40" height="30" as="geometry" />
        </mxCell>
        <mxCell id="aPwg65oClXso-ul-yyPf-83" value="9" style="text;html=1;align=center;verticalAlign=middle;resizable=0;points=[];autosize=1;strokeColor=none;fillColor=none;" vertex="1" parent="aPwg65oClXso-ul-yyPf-77">
          <mxGeometry x="25" y="138" width="30" height="30" as="geometry" />
        </mxCell>
        <mxCell id="aPwg65oClXso-ul-yyPf-84" value="13" style="text;html=1;align=center;verticalAlign=middle;resizable=0;points=[];autosize=1;strokeColor=none;fillColor=none;" vertex="1" parent="aPwg65oClXso-ul-yyPf-77">
          <mxGeometry x="105" y="138" width="40" height="30" as="geometry" />
        </mxCell>
        <mxCell id="aPwg65oClXso-ul-yyPf-85" value="4" style="ellipse;whiteSpace=wrap;html=1;aspect=fixed;" vertex="1" parent="aPwg65oClXso-ul-yyPf-77">
          <mxGeometry x="70" y="50" width="30" height="30" as="geometry" />
        </mxCell>
        <mxCell id="aPwg65oClXso-ul-yyPf-159" value="H = 0" style="text;html=1;align=center;verticalAlign=middle;resizable=0;points=[];autosize=1;strokeColor=none;fillColor=none;" vertex="1" parent="1">
          <mxGeometry x="-1750" y="430" width="50" height="30" as="geometry" />
        </mxCell>
        <mxCell id="aPwg65oClXso-ul-yyPf-160" value="H = 0" style="text;html=1;align=center;verticalAlign=middle;resizable=0;points=[];autosize=1;strokeColor=none;fillColor=none;" vertex="1" parent="1">
          <mxGeometry x="-2010" y="450" width="50" height="30" as="geometry" />
        </mxCell>
        <mxCell id="aPwg65oClXso-ul-yyPf-161" value="H = 0" style="text;html=1;align=center;verticalAlign=middle;resizable=0;points=[];autosize=1;strokeColor=none;fillColor=none;" vertex="1" parent="1">
          <mxGeometry x="-2242.5" y="598" width="50" height="30" as="geometry" />
        </mxCell>
        <mxCell id="aPwg65oClXso-ul-yyPf-162" value="H = 0" style="text;html=1;align=center;verticalAlign=middle;resizable=0;points=[];autosize=1;strokeColor=none;fillColor=none;" vertex="1" parent="1">
          <mxGeometry x="-2472.5" y="598" width="50" height="30" as="geometry" />
        </mxCell>
        <mxCell id="aPwg65oClXso-ul-yyPf-163" value="H = 0" style="text;html=1;align=center;verticalAlign=middle;resizable=0;points=[];autosize=1;strokeColor=none;fillColor=none;" vertex="1" parent="1">
          <mxGeometry x="-2692.5" y="598" width="50" height="30" as="geometry" />
        </mxCell>
      </root>
    </mxGraphModel>
  </diagram>
</mxfile>
